<svg id="Слой_1" data-name="Слой 1" xmlns="http://www.w3.org/2000/svg" xmlns:xlink="http://www.w3.org/1999/xlink" viewBox="0 0 143.27 137.79"><defs><style>.cls-1{fill:url(#Безымянный_градиент_2);}.cls-2{fill:#fff;}</style><linearGradient id="Безымянный_градиент_2" x1="0.02" y1="-216.9" x2="143.28" y2="-216.9" gradientTransform="translate(0 288.8)" gradientUnits="userSpaceOnUse"><stop offset="0" stop-color="#4b7fc1"/><stop offset="1" stop-color="#443996"/></linearGradient></defs><title>addon_icon</title><path class="cls-1" d="M80.75,137.83,136.92,97a15.44,15.44,0,0,0,5.6-17.29l-21.46-66A15.5,15.5,0,0,0,106.35,3H36.94a15.45,15.45,0,0,0-14.7,10.7L.78,79.73A15.43,15.43,0,0,0,6.41,97l56.16,40.81A15.43,15.43,0,0,0,80.75,137.83Z" transform="translate(-0.02 -3)"/><path class="cls-2" d="M67,56.9V30.09a12,12,0,0,1,.7-3.18,9.22,9.22,0,0,1,1.53-2.13,3.76,3.76,0,0,1,2.9-1.05H100.4c0,6.59-3.28,9.71-9.36,9.71H78.37c-1.12,0-1.66.51-1.66,1.53v22Z" transform="translate(-0.02 -3)"/><path class="cls-2" d="M76.71,71.23V110.9a3.47,3.47,0,0,1-3.47,3.47H67V71.23" transform="translate(-0.02 -3)"/><path class="cls-2" d="M67,56.9H85.85a4.85,4.85,0,0,1,3.41,1.4A5.49,5.49,0,0,1,91,61.61V85.72A5.24,5.24,0,0,1,89.26,89a4.8,4.8,0,0,1-3.41,1.31H67V100H86.39c4.71,0,8.21-1.47,10.54-4.43s3.47-6.75,3.47-11.36V59.64A10.54,10.54,0,0,0,99.35,55a13.74,13.74,0,0,0-2.77-3.82,12.21,12.21,0,0,0-8.66-3.47H67v9.2" transform="translate(-0.02 -3)"/><path class="cls-2" d="M52.74,62v38H46.5A3.47,3.47,0,0,1,43,96.57V62Z" transform="translate(-0.02 -3)"/><path class="cls-2" d="M43,42.61a4.9,4.9,0,0,1,5-4.56h4.75v9.71H43Z" transform="translate(-0.02 -3)"/></svg>