<svg xmlns="http://www.w3.org/2000/svg" width="32" height="32" fill="currentColor"
    class="bp-modes__item-icon">
    <path
        d="M28.841 16.011C28.618 15.704 23.296 8 16.5 8 9.703 8 4.382 15.704 4.159 16.01a.833.833 0 0 0 0 .979C4.382 17.296 9.703 25 16.499 25c6.797 0 12.119-7.704 12.342-8.01a.832.832 0 0 0 0-.979zm-2.605.994a23.583 23.583 0 0 1-2.338 2.452c-2.433 2.198-4.96 3.481-7.398 3.481-2.438 0-4.966-1.283-7.398-3.481A23.578 23.578 0 0 1 6.357 16.5a23.58 23.58 0 0 1 2.745-2.957c2.433-2.198 4.96-3.481 7.398-3.481 2.437 0 4.965 1.283 7.398 3.481a23.58 23.58 0 0 1 2.745 2.957c-.126.162-.262.33-.407.505z" />
    <path
        d="M16.5 20a3.5 3.5 0 1 0 0-7 3.5 3.5 0 0 0 0 7zm0-1.6a1.9 1.9 0 1 1 0-3.8 1.9 1.9 0 0 1 0 3.8z" />
</svg>